<svg width="1200" height="630" viewBox="0 0 1200 630" fill="none" xmlns="http://www.w3.org/2000/svg">
  <defs>
    <linearGradient id="bg" x1="0" y1="0" x2="1200" y2="630" gradientUnits="userSpaceOnUse">
      <stop stop-color="#071428"/>
      <stop offset="1" stop-color="#040D1C"/>
    </linearGradient>
    <radialGradient id="glow" cx="0" cy="0" r="1" gradientUnits="userSpaceOnUse" gradientTransform="translate(930 154) rotate(90) scale(330 430)">
      <stop stop-color="#00C8FF" stop-opacity="0.18"/>
      <stop offset="1" stop-color="#00C8FF" stop-opacity="0"/>
    </radialGradient>
  </defs>

  <rect width="1200" height="630" fill="#040D1C"/>
  <rect width="1200" height="630" fill="url(#bg)"/>
  <rect width="1200" height="630" fill="url(#glow)"/>

  <g opacity="0.08">
    <path d="M0 120H1200" stroke="#00C8FF"/>
    <path d="M0 240H1200" stroke="#00C8FF"/>
    <path d="M0 360H1200" stroke="#00C8FF"/>
    <path d="M0 480H1200" stroke="#00C8FF"/>
    <path d="M120 0V630" stroke="#00C8FF"/>
    <path d="M360 0V630" stroke="#00C8FF"/>
    <path d="M600 0V630" stroke="#00C8FF"/>
    <path d="M840 0V630" stroke="#00C8FF"/>
    <path d="M1080 0V630" stroke="#00C8FF"/>
  </g>

  <rect x="90" y="90" width="74" height="74" rx="18" fill="#00C8FF"/>
  <text x="127" y="143" text-anchor="middle" font-family="Inter, Arial, sans-serif" font-size="30" font-weight="700" fill="#040D1C">AE</text>
  <text x="188" y="138" font-family="Inter, Arial, sans-serif" font-size="18" font-weight="600" fill="#00C8FF">ae.hdrelhaj.com</text>

  <text x="90" y="243" font-family="Inter, Arial, sans-serif" font-size="68" font-weight="700" fill="#FFFFFF">Abdelrehman</text>
  <text x="90" y="323" font-family="Inter, Arial, sans-serif" font-size="68" font-weight="700" fill="#FFFFFF">Elhaj</text>
  <text x="90" y="386" font-family="Inter, Arial, sans-serif" font-size="28" fill="#00C8FF">Systems &amp; Cloud Engineer · ERP Specialist</text>
  <text x="90" y="444" font-family="Inter, Arial, sans-serif" font-size="22" fill="#B7C7E5">Odoo ERP · AWS &amp; OCI · Java Spring Boot · Mobile</text>

  <rect x="90" y="500" width="210" height="54" rx="12" fill="#00C8FF"/>
  <text x="195" y="535" text-anchor="middle" font-family="Inter, Arial, sans-serif" font-size="18" font-weight="700" fill="#040D1C">Hire on Upwork</text>

  <rect x="800" y="168" width="300" height="300" rx="26" fill="#0D1F3F" stroke="#1E3A6F"/>
  <rect x="830" y="192" width="240" height="18" rx="9" fill="#00C8FF" fill-opacity="0.9"/>
  <rect x="830" y="224" width="190" height="12" rx="6" fill="#B7C7E5" fill-opacity="0.55"/>
  <rect x="830" y="252" width="220" height="12" rx="6" fill="#B7C7E5" fill-opacity="0.3"/>
  <rect x="830" y="290" width="88" height="88" rx="18" fill="#00C8FF" fill-opacity="0.15"/>
  <rect x="936" y="290" width="88" height="88" rx="18" fill="#00C8FF" fill-opacity="0.08"/>
  <text x="858" y="382" font-family="Inter, Arial, sans-serif" font-size="18" font-weight="600" fill="#F7FBFF">10+ Years</text>
  <text x="858" y="410" font-family="Inter, Arial, sans-serif" font-size="16" fill="#B7C7E5">Enterprise delivery</text>
</svg>